<svg xmlns="http://www.w3.org/2000/svg" xmlns:xlink="http://www.w3.org/1999/xlink" width="500" zoomAndPan="magnify" viewBox="0 0 375 374.999991" height="500" preserveAspectRatio="xMidYMid meet" version="1.0"><defs><g/><clipPath id="180542b9cc"><path d="M 37.5 37.5 L 337.5 37.5 L 337.5 337.5 L 37.5 337.5 Z M 37.5 37.5 " clip-rule="nonzero"/></clipPath><clipPath id="4df99915e3"><path d="M 54.75 37.5 L 320.25 37.5 C 324.824219 37.5 329.210938 39.316406 332.449219 42.550781 C 335.683594 45.789062 337.5 50.175781 337.5 54.75 L 337.5 320.25 C 337.5 324.824219 335.683594 329.210938 332.449219 332.449219 C 329.210938 335.683594 324.824219 337.5 320.25 337.5 L 54.75 337.5 C 50.175781 337.5 45.789062 335.683594 42.550781 332.449219 C 39.316406 329.210938 37.5 324.824219 37.5 320.25 L 37.5 54.75 C 37.5 50.175781 39.316406 45.789062 42.550781 42.550781 C 45.789062 39.316406 50.175781 37.5 54.75 37.5 Z M 54.75 37.5 " clip-rule="nonzero"/></clipPath><clipPath id="8edb397114"><path d="M 13 13 L 362 13 L 362 362 L 13 362 Z M 13 13 " clip-rule="nonzero"/></clipPath><clipPath id="3d91806fcf"><path d="M 8.835938 103.792969 L 272.1875 8.558594 L 367.050781 270.886719 L 103.699219 366.117188 Z M 8.835938 103.792969 " clip-rule="nonzero"/></clipPath><clipPath id="e1c72e5ac3"><path d="M 25.058594 97.925781 L 255.082031 14.746094 C 259.382812 13.191406 264.128906 13.40625 268.269531 15.347656 C 272.414062 17.292969 275.613281 20.800781 277.171875 25.101562 L 360.300781 254.984375 C 361.855469 259.285156 361.636719 264.03125 359.695312 268.171875 C 357.753906 272.3125 354.246094 275.515625 349.941406 277.070312 L 119.921875 360.25 C 115.617188 361.808594 110.875 361.589844 106.730469 359.648438 C 102.589844 357.707031 99.386719 354.199219 97.832031 349.894531 L 14.703125 120.015625 C 13.148438 115.710938 13.363281 110.96875 15.308594 106.824219 C 17.25 102.683594 20.757812 99.480469 25.058594 97.925781 Z M 25.058594 97.925781 " clip-rule="nonzero"/></clipPath></defs><g clip-path="url(#180542b9cc)"><g clip-path="url(#4df99915e3)"><path fill="#000080" d="M 37.5 37.5 L 337.5 37.5 L 337.5 337.5 L 37.5 337.5 Z M 37.5 37.5 " fill-opacity="1" fill-rule="nonzero"/></g></g><g clip-path="url(#8edb397114)"><g clip-path="url(#3d91806fcf)"><g clip-path="url(#e1c72e5ac3)"><path fill="#0055ff" d="M 8.835938 103.792969 L 271.164062 8.929688 L 366.023438 271.257812 L 103.699219 366.117188 Z M 8.835938 103.792969 " fill-opacity="1" fill-rule="nonzero"/></g></g></g><g fill="#ffffff" fill-opacity="1"><g transform="translate(124.249991, 275.627851)"><g><path d="M 116.5 -163.25 L 108.75 -132.5 C 102.25 -137 95.789062 -140.039062 89.375 -141.625 C 82.957031 -143.207031 77.414062 -144 72.75 -144 C 62.914062 -144 55.375 -142.457031 50.125 -139.375 C 44.875 -136.289062 42.25 -131.582031 42.25 -125.25 C 42.25 -120.582031 43.707031 -116.957031 46.625 -114.375 C 49.539062 -111.789062 53.832031 -109.332031 59.5 -107 L 87.25 -95.25 C 97.75 -90.914062 106.082031 -85.332031 112.25 -78.5 C 118.414062 -71.664062 121.5 -62.332031 121.5 -50.5 C 121.5 -34.332031 116.039062 -21.414062 105.125 -11.75 C 94.207031 -2.082031 78.414062 2.75 57.75 2.75 C 52.414062 2.75 46.789062 2.207031 40.875 1.125 C 34.957031 0.0390625 29.414062 -1.457031 24.25 -3.375 C 19.082031 -5.289062 14.832031 -7.582031 11.5 -10.25 L 11.5 -43.75 C 17.832031 -38.914062 25.375 -35.039062 34.125 -32.125 C 42.875 -29.207031 51.082031 -27.75 58.75 -27.75 C 67.582031 -27.75 74.539062 -29.375 79.625 -32.625 C 84.707031 -35.875 87.25 -40.832031 87.25 -47.5 C 87.25 -52.164062 85.75 -55.832031 82.75 -58.5 C 79.75 -61.164062 75.082031 -63.832031 68.75 -66.5 L 39.25 -78.75 C 33.414062 -81.25 28.125 -84.289062 23.375 -87.875 C 18.625 -91.457031 14.875 -96.082031 12.125 -101.75 C 9.375 -107.414062 8 -114.414062 8 -122.75 C 8 -132.914062 10.664062 -141.875 16 -149.625 C 21.332031 -157.375 28.914062 -163.457031 38.75 -167.875 C 48.582031 -172.289062 60.25 -174.5 73.75 -174.5 C 81.582031 -174.5 89.375 -173.582031 97.125 -171.75 C 104.875 -169.914062 111.332031 -167.082031 116.5 -163.25 Z M 116.5 -163.25 "/></g></g></g></svg>